PathFileType	4	(X/Y/Z)	C:/Users/opensim2020/Desktop/walking_exp_matlab/subject06_walking21_straight_01_cyclic.trc	
DataRate	CameraRate	NumFrames	NumMarkers	Units	OrigDataRate	OrigDataStartFrame	OrigNumFrames	
100.00	100.00	4	44	mm	100.00	849	102	
Frame#	Time	LFHD			RFHD			LBHD			RBHD			C7			T10			CLAV			STRN			RBAK			LSHO			LUPA			LELB			LFRM			LWRA			LWRB			LFIN			RSHO			RUPA			RELB			RFRM			RWRA			RWRB			RFIN			LASI			RASI			LPSI			RPSI			LTHI			LKNE			LTIB			LANK			LHEE			LTOE			RTHI			RKNE			RTIB			RANK			RHEE			RTOE			*39			*40			*41			*42			*43			
		X1	Y1	Z1	X2	Y2	Z2	X3	Y3	Z3	X4	Y4	Z4	X5	Y5	Z5	X6	Y6	Z6	X7	Y7	Z7	X8	Y8	Z8	X9	Y9	Z9	X10	Y10	Z10	X11	Y11	Z11	X12	Y12	Z12	X13	Y13	Z13	X14	Y14	Z14	X15	Y15	Z15	X16	Y16	Z16	X17	Y17	Z17	X18	Y18	Z18	X19	Y19	Z19	X20	Y20	Z20	X21	Y21	Z21	X22	Y22	Z22	X23	Y23	Z23	X24	Y24	Z24	X25	Y25	Z25	X26	Y26	Z26	X27	Y27	Z27	X28	Y28	Z28	X29	Y29	Z29	X30	Y30	Z30	X31	Y31	Z31	X32	Y32	Z32	X33	Y33	Z33	X34	Y34	Z34	X35	Y35	Z35	X36	Y36	Z36	X37	Y37	Z37	X38	Y38	Z38	X39	Y39	Z39	X40	Y40	Z40	X41	Y41	Z41	X42	Y42	Z42	X43	Y43	Z43	X44	Y44	Z44	

90	0.890	-1056.00745	164.08119	1637.07910	-926.31299	150.13112	1615.76599	-1075.10461	31.11214	1588.03040	-947.55603	18.78016	1571.17493	-1024.72571	19.23903	1425.44067	-1018.51416	-26.89043	1097.74536	-1022.87268	127.90363	1344.92261	-1037.43604	161.21541	1170.09534	-952.49597	-61.24374	1255.50061	-1184.16565	74.27886	1383.42322	-1262.86230	107.34634	1187.84143	-1277.88232	137.50031	1079.34680	-1283.16565	249.02490	980.28534	-1219.04456	361.75323	941.83270	-1262.81384	330.72952	895.51007	-1245.26001	415.64383	867.25671	-861.64532	77.76761	1374.23853	-779.21167	-2.89148	1189.92578	-765.00854	-20.81555	1068.75427	-744.12585	-38.35382	950.07373	-766.95532	-17.57919	798.24695	-731.07507	-71.76492	815.97791	-726.28058	-59.08737	732.34821	-1141.62366	137.00423	935.11328	-922.15814	162.16277	943.84174	-1095.03101	-17.74644	962.66595	-927.96277	7.94859	962.60846	-1179.64307	31.09203	623.75006	-1149.59985	-1.27555	462.38025	-1130.47180	-118.91233	231.50450	-1081.50977	-186.63577	74.73474	-1036.27222	-231.91202	70.28264	-1082.61426	-51.04973	34.05479	-852.86823	198.36221	622.17712	-886.55188	254.57863	510.45679	-886.52930	302.67447	255.88385	-928.80688	357.07819	77.44984	-973.52136	327.04733	42.01528	-934.37665	510.93039	85.66890	-1004.71576	59.30503	1673.99622												 
91	0.900	-1054.80359	177.53613	1635.24548	-925.14783	163.46394	1613.60486	-1074.18054	44.70366	1585.83997	-946.68842	32.18786	1568.72107	-1024.10388	33.09198	1423.26819	-1018.40613	-12.59518	1095.33643	-1022.26288	141.88161	1342.84863	-1037.32117	175.43881	1168.02356	-952.34332	-47.35678	1252.93188	-1183.62646	88.49273	1381.34802	-1262.24255	122.24094	1185.94080	-1277.27368	152.77654	1077.69421	-1281.52759	266.53836	981.64252	-1215.71094	379.12646	946.42267	-1259.76794	349.97748	899.07666	-1241.20251	435.50797	873.79065	-860.98004	91.47939	1371.66602	-778.82367	10.60301	1187.38257	-764.50879	-7.95159	1066.39221	-743.58191	-25.76992	947.72723	-765.90259	-5.08610	795.83984	-730.46667	-59.44855	813.78473	-725.28021	-47.02681	730.14948	-1142.26563	151.51888	932.93469	-922.53937	177.60915	941.85126	-1094.28601	-3.34175	959.98218	-927.42316	23.42245	960.28021	-1179.50769	42.46032	622.44891	-1149.24585	8.09824	461.43555	-1129.81836	-114.62434	232.90831	-1080.43591	-185.53284	77.65769	-1035.09058	-230.65140	74.28828	-1082.26282	-51.08381	33.98592	-852.34875	213.31712	619.87219	-885.82794	268.56567	507.90176	-885.79761	321.54227	254.82555	-928.27203	379.53442	77.47517	-972.75555	350.18503	41.39226	-934.38660	533.41937	88.89080	-1003.59192	72.53619	1671.72974												 
92	0.910	-1053.57227	191.02469	1633.60986	-923.95679	176.82845	1611.64453	-1073.22400	58.31550	1583.90796	-945.76801	45.75021	1566.46375	-1023.41248	46.96380	1421.35217	-1018.34912	1.86904	1093.16248	-1021.59302	155.96597	1341.01929	-1037.12500	189.94075	1166.29248	-952.16748	-33.15900	1250.26782	-1182.96887	102.72131	1379.51013	-1261.64111	137.11119	1184.17444	-1276.62708	167.83997	1076.07068	-1279.54700	283.28110	982.72668	-1212.52173	395.88306	950.46771	-1256.74683	368.30646	902.06360	-1237.45081	454.79041	879.67554	-860.22278	105.22322	1369.31201	-778.48657	24.00481	1185.03381	-764.22485	5.65572	1064.06165	-742.98590	-12.74972	945.52051	-764.90289	7.81465	793.57251	-729.83594	-46.70327	811.65247	-724.35229	-34.23705	728.11810	-1142.71497	165.34659	931.07977	-922.95514	193.43593	940.05908	-1093.61377	11.34823	957.58447	-926.77722	38.88157	958.22778	-1179.29114	54.32007	621.21442	-1148.92590	18.18725	460.51208	-1129.12903	-109.82881	234.82268	-1079.61572	-184.16704	81.17680	-1034.05725	-229.10194	78.91421	-1081.93726	-51.03901	33.93820	-852.05475	228.74240	618.03815	-885.25488	282.95761	506.00473	-885.20178	338.64328	253.63736	-927.93359	398.87106	77.04906	-972.27985	369.65878	40.47241	-934.71277	552.64813	90.58463	-1002.43182	85.90993	1669.69897												 
93	0.920	-1052.26025	204.56364	1632.22900	-922.70984	190.49840	1610.02539	-1072.15540	71.99931	1582.23022	-944.73407	59.27688	1564.54724	-1022.63214	60.79142	1419.57922	-1018.16815	16.88817	1091.08813	-1020.87756	170.10361	1339.49976	-1036.75098	204.55035	1164.85645	-951.86176	-19.04875	1248.14124	-1182.20508	117.04735	1377.92407	-1260.85864	151.72765	1182.63806	-1275.95605	182.69580	1074.72559	-1277.59277	299.54770	983.57288	-1209.49500	412.03879	953.99011	-1253.66577	386.30054	905.28278	-1233.75610	472.64395	884.81378	-859.42145	119.06574	1367.24866	-778.22888	37.63090	1182.91345	-763.47491	19.28319	1062.05774	-742.34167	0.83927	943.42340	-763.87140	21.28739	791.49860	-729.18610	-33.43239	809.65601	-723.34161	-20.95222	726.30591	-1142.73096	180.69751	929.36450	-923.12616	209.19145	938.38953	-1092.93616	26.55218	955.41315	-926.26135	54.73503	956.49817	-1179.02466	66.58781	620.05511	-1148.60791	28.87999	459.60995	-1128.62610	-104.44556	236.95340	-1078.94409	-182.47377	85.14347	-1033.32507	-227.20430	84.12917	-1081.57532	-50.88568	33.93486	-852.02838	244.60239	616.83490	-885.09979	297.95425	504.84113	-884.64972	354.34061	252.29208	-927.51715	414.35510	75.45554	-971.73077	385.60260	38.56207	-934.75073	568.38977	90.50428	-1001.18372	99.29240	1667.94849												 
